:SAMPLES-PER-SECOND 30
:FULLY-SPECIFIED
:DEGREES
1
root  3.20378 40.9345 -1.87519 -172.04 -88.2095 171.507
RightUpLeg  -1.16305 -8.14203 -5.18455
RightLeg  5.45934 -5.52267 3.27136
RightFoot  -2.21175 0.0571497 -1.01235
RightToes  0.000482159 0.542163 -0.142577
Spine  2.76337 -0.26966 -2.47679
Spine1  -7.57494 -0.641482 3.5615
HEad  2.84832 4.23087 0.287246
LeftShoulder1  0.534657 -0.788632 -4.61442
LeftArm  -22.5714 12.5578 -11.1584
LeftForeArm  -0.801262 0.577727 0.5371
LeftHand  -0.25398 0.0180481 5.50724
RightShoulder  0.266624 -1.40785 4.87411
RightArm  -21.3397 -1.19035 3.37188
RightForeArm  0.914578 0.544914 2.54773
RightHand  -1.36078 3.19976 -18.5413
LeftUpLeg  -0.179598 4.28456 2.34093
LeftLeg  4.54617 8.50446 -2.59517
LeftFoot  -4.26109 -0.000200358 0.573016
LeftToes  1.06245e-005 4.65856e-005 -8.18503e-006
2
root  3.2164 40.9345 -1.88805 -171.998 -88.0989 171.41
RightUpLeg  -1.15483 -8.13695 -5.18281
RightLeg  5.49295 -5.42522 3.26543
RightFoot  -2.22433 0.0556449 -0.988966
RightToes  0.000482159 0.542163 -0.142577
Spine  2.90816 -0.229563 -2.63195
Spine1  -7.68575 -0.609403 3.644
HEad  3.00284 4.20331 0.291816
LeftShoulder1  0.534657 -0.797536 -4.5543
LeftArm  -22.5098 12.64 -11.2531
LeftForeArm  -0.952152 0.510207 0.497128
LeftHand  -0.25398 0.0180481 5.50724
RightShoulder  0.280234 -1.29747 4.85295
RightArm  -21.2848 -1.27805 3.27912
RightForeArm  1.04471 0.480591 2.53967
RightHand  -1.35294 3.228 -18.3812
LeftUpLeg  -0.110083 4.32207 2.36235
LeftLeg  4.51423 8.57306 -2.62839
LeftFoot  -4.24103 -9.48564e-005 0.571377
LeftToes  1.06245e-005 4.65856e-005 -8.18503e-006
3
root  3.23939 40.9341 -1.91103 -171.877 -87.9091 171.21
RightUpLeg  -1.17976 -8.13057 -5.17625
RightLeg  5.59133 -5.2507 3.24983
RightFoot  -2.26215 0.0552976 -0.983568
RightToes  0.000482159 0.542163 -0.142577
Spine  3.09584 -0.158239 -2.92814
Spine1  -7.78349 -0.555772 3.80539
HEad  3.21014 4.16589 0.255787
LeftShoulder1  0.533917 -0.783669 -4.46118
LeftArm  -22.4226 12.7507 -11.4197
LeftForeArm  -1.09241 0.370146 0.432299
LeftHand  -0.25398 0.0180481 5.50724
RightShoulder  0.296717 -1.16506 4.83732
RightArm  -21.1914 -1.38255 3.14342
RightForeArm  1.61234 0.427147 2.52108
RightHand  -1.33864 3.36113 -17.9289
LeftUpLeg  -0.0282356 4.36269 2.38407
LeftLeg  4.49536 8.70588 -2.65067
LeftFoot  -4.21537 0.00111386 0.552591
LeftToes  1.06245e-005 4.65856e-005 -8.18503e-006
4
root  3.26208 40.9324 -1.92854 -171.709 -87.766 170.998
RightUpLeg  -1.23459 -8.12309 -5.16802
RightLeg  5.68594 -5.11652 3.23364
RightFoot  -2.29669 0.0565979 -1.00377
RightToes  0.000482159 0.542163 -0.142577
Spine  3.15609 -0.114206 -3.15703
Spine1  -7.69509 -0.524384 3.88795
HEad  3.35425 4.19347 0.152977
LeftShoulder1  0.536207 -0.797824 -4.48268
LeftArm  -22.2859 12.8305 -11.4578
LeftForeArm  -1.23332 0.263669 0.353644
LeftHand  -0.25398 0.0180481 5.50724
RightShoulder  0.301533 -1.13111 4.85095
RightArm  -21.1501 -1.40227 3.06274
RightForeArm  1.85087 0.390841 2.51357
RightHand  -1.30456 3.27646 -17.6499
LeftUpLeg  -0.0196534 4.34373 2.3661
LeftLeg  4.53476 8.85301 -2.60255
LeftFoot  -4.22254 0.00499233 0.492314
LeftToes  1.06245e-005 4.65856e-005 -8.18503e-006
5
root  3.28049 40.9296 -1.93478 -171.602 -87.7096 170.897
RightUpLeg  -1.30306 -8.1197 -5.15977
RightLeg  5.73041 -5.07307 3.22948
RightFoot  -2.30778 0.0585324 -1.03384
RightToes  0.000482159 0.542163 -0.142577
Spine  3.11028 -0.114271 -3.24115
Spine1  -7.48545 -0.525763 3.85402
HEad  3.44658 4.25512 0.081938
LeftShoulder1  0.557655 -0.90006 -4.70631
LeftArm  -22.1109 12.871 -11.2618
LeftForeArm  -1.42991 0.282201 0.287492
LeftHand  -0.25398 0.0180481 5.50724
RightShoulder  0.297747 -1.16238 4.83418
RightArm  -21.1731 -1.39792 3.05359
RightForeArm  1.31717 0.336055 2.52308
RightHand  -1.25978 2.87727 -17.8442
LeftUpLeg  -0.0995304 4.28683 2.31588
LeftLeg  4.63968 8.96538 -2.50264
LeftFoot  -4.31335 0.00959549 0.420775
LeftToes  1.06245e-005 4.65856e-005 -8.18503e-006
6
root  3.29707 40.9245 -1.93348 -171.611 -87.6889 170.96
RightUpLeg  -1.41529 -8.1366 -5.15683
RightLeg  5.77845 -5.06125 3.24688
RightFoot  -2.31681 0.0606217 -1.0663
RightToes  0.000482159 0.542163 -0.142577
Spine  3.08644 -0.128337 -3.27138
Spine1  -7.35881 -0.537931 3.81398
HEad  3.57464 4.25456 0.114795
LeftShoulder1  0.586167 -1.02198 -5.03427
LeftArm  -21.9803 12.8698 -10.9639
LeftForeArm  -1.57457 0.369049 0.258095
LeftHand  -0.25398 0.0180481 5.50724
RightShoulder  0.293502 -1.17062 4.71612
RightArm  -21.2612 -1.47246 3.08598
RightForeArm  0.778953 0.284902 2.50212
RightHand  -1.23428 2.56488 -18.1424
LeftUpLeg  -0.264189 4.25638 2.2611
LeftLeg  4.83173 9.02825 -2.39108
LeftFoot  -4.5232 0.0138293 0.354976
LeftToes  1.06245e-005 4.65856e-005 -8.18503e-006
7
root  3.3121 40.9169 -1.92299 -171.905 -87.6374 171.327
RightUpLeg  -1.56933 -8.18238 -5.17367
RightLeg  5.87516 -4.97726 3.28989
RightFoot  -2.349 0.0621582 -1.09018
RightToes  0.000482159 0.542163 -0.142577
Spine  3.14297 -0.12542 -3.22637
Spine1  -7.37443 -0.522783 3.71004
HEad  3.79991 4.17994 0.186529
LeftShoulder1  0.599989 -1.06163 -5.24818
LeftArm  -21.9306 12.8336 -10.7762
LeftForeArm  -1.61304 0.394296 0.246506
LeftHand  -0.25398 0.0180481 5.50724
RightShoulder  0.288686 -1.18082 4.54414
RightArm  -21.4027 -1.58343 3.13713
RightForeArm  1.0235 0.269937 2.42547
RightHand  -1.23236 2.59476 -18.0526
LeftUpLeg  -0.491839 4.25375 2.19234
LeftLeg  5.14339 9.09866 -2.2419
LeftFoot  -4.84319 0.0188618 0.276767
LeftToes  1.06245e-005 4.65856e-005 -8.18503e-006
8
root  3.31982 40.9086 -1.89517 -172.896 -87.5065 172.34
RightUpLeg  -1.66071 -8.24177 -5.21574
RightLeg  5.96241 -4.76425 3.35347
RightFoot  -2.39093 0.062416 -1.09419
RightToes  0.000482159 0.542163 -0.142577
Spine  3.2498 -0.0884428 -2.91966
Spine1  -7.38866 -0.437483 3.2857
HEad  4.07856 4.10181 0.241923
LeftShoulder1  0.596807 -1.04922 -5.20946
LeftArm  -21.9595 12.7897 -10.7671
LeftForeArm  -1.65666 0.360585 0.244735
LeftHand  -0.25398 0.0180481 5.50724
RightShoulder  0.274127 -1.28694 4.47521
RightArm  -21.4656 -1.59422 3.16345
RightForeArm  1.60221 0.269351 2.37285
RightHand  -1.22689 2.72129 -17.7072
LeftUpLeg  -0.683193 4.23111 2.08787
LeftLeg  5.54069 9.26167 -2.01487
LeftFoot  -5.2408 0.0227698 0.216033
LeftToes  1.06245e-005 4.65856e-005 -8.18503e-006
9
root  3.3165 40.9009 -1.85152 -174.627 -87.259 173.984
RightUpLeg  -1.61012 -8.28862 -5.26562
RightLeg  5.99656 -4.43822 3.41516
RightFoot  -2.42074 0.0619758 -1.08735
RightToes  0.000482159 0.542163 -0.142577
Spine  3.39218 -0.00553149 -2.37063
Spine1  -7.2873 -0.273249 2.55488
HEad  4.32737 4.04297 0.335035
LeftShoulder1  0.590393 -1.07058 -4.98509
LeftArm  -22.1024 12.7668 -10.8517
LeftForeArm  -1.74394 0.375678 0.29711
LeftHand  -0.25398 0.0180481 5.50724
RightShoulder  0.258096 -1.43855 4.6227
RightArm  -21.32 -1.48274 3.06413
RightForeArm  1.50966 0.246406 2.43675
RightHand  -1.21636 2.6861 -17.6332
LeftUpLeg  -0.719403 4.20122 1.97488
LeftLeg  5.92424 9.52983 -1.76197
LeftFoot  -5.68905 0.0227967 0.235756
LeftToes  1.06245e-005 4.65856e-005 -8.18503e-006
10
root  3.30553 40.8923 -1.80367 -176.328 -86.9152 175.529
RightUpLeg  -1.50799 -8.31316 -5.30696
RightLeg  6.06274 -4.0659 3.44316
RightFoot  -2.45224 0.0614565 -1.07928
RightToes  0.000482159 0.542163 -0.142577
Spine  3.57036 0.106582 -1.91492
Spine1  -7.11578 -0.0946605 1.95443
HEad  4.55933 3.9612 0.461009
LeftShoulder1  0.584919 -1.09513 -4.77505
LeftArm  -22.3096 12.7811 -10.9187
LeftForeArm  -1.77451 0.426343 0.395879
LeftHand  -0.25398 0.0180481 5.50724
RightShoulder  0.263606 -1.44022 4.93063
RightArm  -21.0859 -1.3749 2.79626
RightForeArm  0.750383 0.214331 2.56639
RightHand  -1.22587 2.62494 -17.8948
LeftUpLeg  -0.624862 4.24009 1.8987
LeftLeg  6.24124 9.81062 -1.57968
LeftFoot  -6.12765 0.0230054 0.296182
LeftToes  1.06245e-005 4.65856e-005 -8.18503e-006
11
root  3.29008 40.8823 -1.75355 -177.346 -86.5883 176.434
RightUpLeg  -1.49051 -8.33083 -5.351
RightLeg  6.21753 -3.73064 3.43157
RightFoot  -2.4957 0.0592449 -1.04491
RightToes  0.000482159 0.542163 -0.142577
Spine  3.72177 0.18965 -1.7542
Spine1  -6.94448 0.00492562 1.79366
HEad  4.87138 3.87257 0.475083
LeftShoulder1  0.576464 -1.04323 -4.72839
LeftArm  -22.3543 12.8395 -10.9103
LeftForeArm  -1.7571 0.396082 0.423016
LeftHand  -0.25398 0.0180481 5.50724
RightShoulder  0.296445 -1.22751 5.21549
RightArm  -20.9559 -1.3605 2.4959
RightForeArm  0.311488 0.211736 2.63945
RightHand  -1.24804 2.71574 -18.0162
LeftUpLeg  -0.550695 4.35848 1.85158
LeftLeg  6.49534 10.0074 -1.49204
LeftFoot  -6.40927 0.0245662 0.304298
LeftToes  1.06245e-005 4.65856e-005 -8.18503e-006
